<svg xmlns="http://www.w3.org/2000/svg" xmlns:xlink="http://www.w3.org/1999/xlink" width="24" height="24" viewBox="0 0 24 24">
    <defs>
        <path id="a" d="M12 2.978a5.017 5.017 0 0 1 5.011 5.01 5.015 5.015 0 0 1-2.632 4.41c2.483.892 4.917 3.308 5.616 8.041a.5.5 0 1 1-.99.146c-.36-2.443-1.275-4.444-2.645-5.787-1.13-1.107-2.564-1.743-4.06-1.808a5.077 5.077 0 0 1-.563.003c-2.682.145-5.944 2.19-6.742 7.591a.5.5 0 1 1-.99-.146c.393-2.657 1.425-4.855 2.984-6.357a7.555 7.555 0 0 1 2.655-1.67A5.015 5.015 0 0 1 6.99 7.988 5.017 5.017 0 0 1 12 2.978zm0 1a4.016 4.016 0 0 0-4.011 4.01 4.016 4.016 0 0 0 3.758 4.003 6.747 6.747 0 0 1 .534-.002 4.016 4.016 0 0 0 3.73-4c0-2.212-1.8-4.011-4.011-4.011z"/>
    </defs>
    <g fill="none" fill-rule="evenodd">
        <path d="M0 24h24V0H0z"/>
        <use fill="#333" xlink:href="#a"/>
    </g>
</svg>
