<svg xmlns="http://www.w3.org/2000/svg" width="81" height="81" viewBox="0 0 81 81">
    <defs>
        <linearGradient id="a" x1="34.864%" x2="64.547%" y1="15.908%" y2="74.04%">
            <stop offset="0%"/>
            <stop offset="100%" stop-opacity="0"/>
        </linearGradient>
        <linearGradient id="b" x1="28.971%" x2="61.503%" y1="23.369%" y2="71.28%">
            <stop offset="0%"/>
            <stop offset="100%" stop-opacity="0"/>
        </linearGradient>
    </defs>
    <g fill="none" fill-rule="evenodd">
        <path fill="#EBEBEB" fill-rule="nonzero" d="M32.63 40.5c0-1.9 3.15-3.47 7.075-3.5a14.27 14.27 0 0 1 1.93.115c2.53-6 3.315-11.36 2.26-15.73v-.065L38.97 3.915a4.5 4.5 0 0 0-2.27-2.87A2.635 2.635 0 0 0 34.475 1 112.33 112.33 0 0 1 2.55 10a2.5 2.5 0 0 0-.885.29c-1.26.7-1.87 2.44-1.5 4.23 0 .045 0 .09.035.135L6.245 34.69c.034.11.08.218.135.32C9.235 40.33 15.165 45.24 24 49.6a10.04 10.04 0 0 0 12.935-3.65c.46-.73.89-1.45 1.31-2.165-3.19-.285-5.6-1.66-5.615-3.285zM32 16.415c3.055-.105 5.57 1 5.62 2.5.05 1.5-2.385 2.76-5.44 2.865-3.055.105-5.57-1-5.62-2.5-.05-1.5 2.405-2.78 5.44-2.865zm-16.735 10.14c-2.655 1.5-5.405 1.69-6.135.4-.73-1.29.83-3.55 3.5-5.06 2.67-1.51 5.37-1.685 6.125-.395.755 1.29-.83 3.545-3.49 5.055zM26.54 34.11a12.235 12.235 0 0 0-7.465 6.415.635.635 0 0 1-1.2-.245c.075-4.085 3.16-7.955 7.765-9.28 4.605-1.325 9.255.3 11.5 3.695a.635.635 0 0 1-.89.845 12.15 12.15 0 0 0-9.71-1.43z"/>
        <path fill="url(#a)" fill-rule="nonzero" d="M40.63 47.5c0-1.9 3.15-3.47 7.075-3.5a14.27 14.27 0 0 1 1.93.115c2.53-6 3.315-11.36 2.26-15.73v-.065L46.97 10.915a4.5 4.5 0 0 0-2.27-2.87A2.635 2.635 0 0 0 42.475 8a112.405 112.405 0 0 1-15.395 5.61l6.705 24.35c4.545-1.25 9.135.37 11.355 3.73a.635.635 0 0 1-.89.845 12.165 12.165 0 0 0-9.61-1.455l4.46 16.195a10 10 0 0 0 5.84-4.325c.46-.73.89-1.45 1.31-2.165-3.195-.285-5.605-1.66-5.62-3.285zm-.43-18.73c-3.055.105-5.57-1-5.62-2.5-.05-1.5 2.385-2.77 5.42-2.855 3.035-.085 5.57 1 5.62 2.5.05 1.5-2.365 2.755-5.42 2.855z" opacity=".2" transform="translate(-8 -7)"/>
        <path fill="#000" fill-rule="nonzero" d="M37.145 43.63h-.05c-.325-.06-.635-.135-.935-.22l-.205-.06a8.255 8.255 0 0 1-1.455-.575h-.04a5.185 5.185 0 0 1-.855-.555l-.07-.055c-.08-.065-.145-.135-.215-.205l-.075-.075a2.7 2.7 0 0 1-.325-.42l-.035-.07a2.07 2.07 0 0 1-.12-.24 1.875 1.875 0 0 1-.07-.215 1.725 1.725 0 0 1-.07-.435c.002-.303.08-.6.225-.865a2.5 2.5 0 0 1 .585-.775l.09-.08.235-.19.1-.075c.115-.08.235-.165.365-.24.13-.075.265-.15.41-.22l.13-.065.335-.15.14-.06c.16-.065.32-.125.5-.18l.5-.16.165-.045.41-.1.17-.04a11.747 11.747 0 0 1 1.19-.19h.185l.47-.04H40.74c.293.02.58.047.86.08 2.53-6 3.315-11.36 2.26-15.73v-.065l-4.89-17.4a4.5 4.5 0 0 0-2.27-2.87A2.635 2.635 0 0 0 34.475 1 112.33 112.33 0 0 1 2.55 10a2.5 2.5 0 0 0-.885.29c-1.26.7-1.87 2.44-1.5 4.23 0 .045 0 .09.035.135L6.245 34.69c.034.11.08.218.135.32C9.235 40.33 15.165 45.24 24 49.6a10.04 10.04 0 0 0 12.935-3.65c.46-.73.89-1.45 1.31-2.165-.38-.04-.745-.09-1.1-.155zM32 16.415c3.055-.105 5.57 1 5.62 2.5.05 1.5-2.385 2.76-5.44 2.865-3.055.105-5.57-1-5.62-2.5-.05-1.5 2.405-2.78 5.44-2.865zm-16.735 10.14c-2.655 1.5-5.405 1.69-6.135.4-.73-1.29.83-3.55 3.5-5.06 2.67-1.51 5.37-1.685 6.125-.395.755 1.29-.83 3.545-3.49 5.055zM26.54 34.11a12.235 12.235 0 0 0-7.465 6.415.635.635 0 0 1-1.2-.245c.075-4.085 3.16-7.955 7.765-9.28 4.605-1.325 9.255.3 11.5 3.695a.635.635 0 0 1-.89.845 12.15 12.15 0 0 0-9.71-1.43z" opacity=".06"/>
        <path fill="#000" fill-rule="nonzero" d="M12.62 21.895c2.655-1.5 5.405-1.69 6.135-.4.043.076.078.157.105.24a1.64 1.64 0 0 0-.105-1.235c-.73-1.285-3.5-1.105-6.135.4-2.5 1.42-4.03 3.5-3.595 4.82.315-1.22 1.665-2.72 3.595-3.825z" opacity=".06"/>
        <path fill="#4A4D4E" fill-rule="nonzero" d="M36.465 33.815c-.09-.1-.175-.205-.265-.305-.09-.1-.215-.205-.32-.31a3.979 3.979 0 0 0-.225-.215c-.08-.07-.27-.22-.405-.33l-.185-.15a9.658 9.658 0 0 0-.5-.335l-.14-.095a9.06 9.06 0 0 0-.565-.32l-.105-.06a7.55 7.55 0 0 0-.645-.3l-.055-.025c-.233-.1-.472-.19-.715-.27a11 11 0 0 0-4.11-.535l-.22 1c-.8.059-1.593.2-2.365.42-4.325 1.255-7.305 4.74-7.725 8.515v-.06a.64.64 0 0 0 1.17.065 11.845 11.845 0 0 1 17.18-5 .63.63 0 0 0 .425.085.66.66 0 0 0 .19-.065V34.32c-.06-.08-.11-.16-.175-.24-.065-.08-.17-.175-.245-.265z"/>
        <path fill="#333" fill-rule="nonzero" d="M25.64 32a11.73 11.73 0 0 1 2.36-.425l.22-1c-.532.029-1.062.094-1.585.195-.283.057-.567.123-.85.2l-.145.035c-4.605 1.33-7.69 5.2-7.77 9.285 0 .061.01.122.03.18v.06c.44-3.805 3.42-7.29 7.74-8.53z"/>
        <path fill="#000" fill-rule="nonzero" d="M25.64 32a11.73 11.73 0 0 1 2.36-.425l.22-1c-.532.029-1.062.094-1.585.195-.283.057-.567.123-.85.2l-.145.035c-4.605 1.33-7.69 5.2-7.77 9.285 0 .061.01.122.03.18v.06c.44-3.805 3.42-7.29 7.74-8.53z" opacity=".06"/>
        <path fill="#333" fill-rule="nonzero" d="M17.9 40.46z"/>
        <path fill="#000" fill-rule="nonzero" d="M17.9 40.46zM17.9 40.46z" opacity=".06"/>
        <path fill="#333" fill-rule="nonzero" d="M28.23 30.555a11.6 11.6 0 0 0-1.585.205 11.625 11.625 0 0 1 1.585-.195v-.01z"/>
        <path fill="#000" fill-rule="nonzero" d="M28.23 30.555a11.6 11.6 0 0 0-1.585.205 11.625 11.625 0 0 1 1.585-.195v-.01z" opacity=".06"/>
        <path fill="#000" fill-rule="nonzero" d="M28.23 30.555a11.6 11.6 0 0 0-1.585.205 11.625 11.625 0 0 1 1.585-.195v-.01z" opacity=".06"/>
        <path fill="#333" fill-rule="nonzero" d="M26.64 30.76c-.33.065-.665.14-1 .235l.145-.035a10.2 10.2 0 0 1 .855-.2z"/>
        <path fill="#000" fill-rule="nonzero" d="M26.64 30.76c-.33.065-.665.14-1 .235l.145-.035a10.2 10.2 0 0 1 .855-.2z" opacity=".06"/>
        <path fill="#000" fill-rule="nonzero" d="M26.64 30.76c-.33.065-.665.14-1 .235l.145-.035a10.2 10.2 0 0 1 .855-.2zM24 48.6C15.165 44.24 9.235 39.33 6.38 34a1.74 1.74 0 0 1-.135-.32L.215 13.66a.301.301 0 0 0-.035-.135A5.07 5.07 0 0 1 .095 13a4.925 4.925 0 0 0 .085 1.5c0 .047.012.092.035.135l6.03 20.055c.034.11.08.218.135.32C9.235 40.33 15.165 45.24 24 49.6c.19.095.385.18.575.26 0-.345-.04-.685-.05-1-.17-.095-.345-.175-.525-.26z" opacity=".06"/>
        <path fill="#EBEBEB" fill-rule="nonzero" d="M79.745 28.57a3.385 3.385 0 0 0-2.46-1.455 144.295 144.295 0 0 1-41.47-9.79 3.175 3.175 0 0 0-1.18-.225c-1.85 0-3.62 1.575-4.305 3.825a2.683 2.683 0 0 0-.045.175L24.57 47.36a2.225 2.225 0 0 0-.05.445c-.11 7.755 3.5 16.97 10.695 27.38A12.9 12.9 0 0 0 52 79.15c12.875-7.065 20.88-15.12 23.15-23.29v-.085L80.5 33.21a5.75 5.75 0 0 0-.755-4.64zM32.63 40.5c0-1.9 3.15-3.47 7.075-3.5 3.925-.03 7.12 1.475 7.14 3.375.02 1.9-3.15 3.47-7.075 3.5-3.925.03-7.12-1.5-7.14-3.375zM60.345 62c-2.67 4.5-8.545 6.875-14.5 5.465-5.955-1.41-10.195-6.19-10.555-11.425a.815.815 0 0 1 1.525-.39c1.5 2.67 4.575 6.5 10 7.765 4.285.963 8.778.075 12.375-2.445A.815.815 0 0 1 60.345 62zm9.32-12.78c-.865 1.69-4.4 1.615-7.895-.175-3.495-1.79-5.625-4.61-4.76-6.3.865-1.69 4.4-1.615 7.895.17 3.495 1.785 5.625 4.585 4.76 6.3v.005z"/>
        <path fill="#E60000" fill-rule="nonzero" d="M59.15 60.96a15.605 15.605 0 0 1-12.375 2.445c-5.405-1.275-8.46-5.095-10-7.765a.815.815 0 0 0-1.525.39c.355 5.235 4.56 10 10.555 11.425 5.995 1.425 11.855-.97 14.5-5.465a.815.815 0 0 0-1.155-1.03z"/>
        <path fill="#000" fill-rule="nonzero" d="M32 16.415c.38-.02.76-.02 1.14 0 .462-.216.965-.33 1.475-.335.404 0 .805.076 1.18.225l1.31.5c-.895-.905-2.85-1.5-5.105-1.415-3.055.105-5.5 1.39-5.44 2.865.008.153.042.303.1.445.505-1.2 2.695-2.2 5.34-2.285zM80.5 32.21l-5.32 22.565v.085c-2.27 8.17-10.275 16.225-23.15 23.29a12.9 12.9 0 0 1-16.805-3.965c-6.275-9.06-9.81-17.21-10.55-24.29l-.08-.03c.5 7.31 4.05 15.815 10.63 25.32A12.9 12.9 0 0 0 52 79.15c12.875-7.065 20.88-15.12 23.15-23.29v-.085L80.5 33.21a6.5 6.5 0 0 0 .15-2 6.635 6.635 0 0 1-.15 1z" opacity=".06"/>
        <path fill="#000" fill-rule="nonzero" d="M59.15 60.96a15.605 15.605 0 0 1-12.375 2.445c-5.405-1.275-8.46-5.095-10-7.765a.815.815 0 0 0-1.525.39c0 .21.045.415.07.625a.835.835 0 0 1 1.455 0c1.5 2.67 4.575 6.5 10 7.765 4.285.963 8.778.075 12.375-2.445a.84.84 0 0 1 1.11.16l.085-.13a.815.815 0 0 0-1.195-1.045z" opacity=".12"/>
        <path fill="#000" fill-rule="nonzero" d="M24.585 48.865h-.05c0 .34.025.68.05 1l.08.03c-.035-.35-.06-.69-.08-1.03zM24.5 47.805v1.04h.05c-.027-.397-.043-.79-.05-1.18.03.06 0 .1 0 .14zM42 36.135l-.38-.055a14.27 14.27 0 0 0-1.93-.115c-3.925.035-7.09 1.61-7.075 3.5.004.17.032.338.085.5.5-1.66 3.43-2.96 7-3a14.5 14.5 0 0 1 1.5.065l.42.05c2.675.34 4.715 1.42 5.125 2.775a1.73 1.73 0 0 0 .085-.5c0-1.52-2.02-2.78-4.83-3.22zM34.635 16.1a3.545 3.545 0 0 0-1.475.335c1.76.12 3.225.65 3.96 1.4l.5.2v-.125a1.615 1.615 0 0 0-.5-1.07l-1.31-.5a3.175 3.175 0 0 0-1.175-.24z" opacity=".06"/>
        <path fill="url(#b)" fill-rule="nonzero" d="M83.165 62.86v-.085L88.5 40.21a5.75 5.75 0 0 0-.76-4.64 3.385 3.385 0 0 0-2.46-1.455A144.365 144.365 0 0 1 65.14 31l-10.5 39.39.145.04c4.285.963 8.778.075 12.375-2.445a.815.815 0 0 1 1.195 1.03c-2.67 4.5-8.545 6.875-14.5 5.465l-.265-.075-3.42 12.81c3.288.97 6.827.587 9.83-1.065 12.895-7.07 20.9-15.12 23.165-23.29zM69.77 56.04c-3.5-1.785-5.625-4.61-4.76-6.3.865-1.69 4.4-1.615 7.895.17 3.495 1.785 5.625 4.61 4.76 6.3-.865 1.69-4.4 1.615-7.89-.17h-.005z" opacity=".2" transform="translate(-8 -7)"/>
        <path fill="#000" fill-rule="nonzero" d="M64.905 41.915c-3.5-1.785-7.03-1.865-7.895-.17a2 2 0 0 0-.13 1.345c.03-.12.074-.235.13-.345.865-1.69 4.4-1.615 7.895.17 2.675 1.37 4.55 3.345 4.89 4.955.45-1.715-1.625-4.285-4.89-5.955z" opacity=".06"/>
        <path d="M-8-7h96v96H-8z"/>
    </g>
</svg>
