<svg xmlns="http://www.w3.org/2000/svg" width="32" height="32" viewBox="0 0 32 32">
    <g fill="none" fill-rule="evenodd">
        <path d="M0 0h32v32H0z"/>
        <path stroke="#333" stroke-width=".857" d="M10.711 4.283H21.53a3.086 3.086 0 0 1 3.085 3.086v16.997a3.094 3.094 0 0 1-3.094 3.094H10.711a3.086 3.086 0 0 1-3.085-3.086V7.377a3.086 3.086 0 0 1 3.085-3.086v-.008z"/>
        <path fill="#333" fill-rule="nonzero" d="M16.12 22.051a1.543 1.543 0 1 1 0 3.086 1.543 1.543 0 0 1 0-3.086zM14.131 12.486l-.18.085a2.486 2.486 0 0 1-.325.103c-.15.037-.302.066-.455.086h-.591a2.264 2.264 0 0 1-.857-.163 1.817 1.817 0 0 1-.66-.48 2.117 2.117 0 0 1-.42-.763 3.163 3.163 0 0 1-.154-1.028c-.01-.373.045-.744.162-1.097.09-.286.239-.549.438-.772.172-.195.386-.35.625-.454a2.04 2.04 0 0 1 .755-.146c.346-.014.69.066.994.232.246.134.448.336.583.582l-.617.575a1.226 1.226 0 0 0-.129-.189.986.986 0 0 0-.197-.18.917.917 0 0 0-.274-.137 1.123 1.123 0 0 0-.352-.051.857.857 0 0 0-.728.454c-.11.156-.192.33-.24.514a2.22 2.22 0 0 0-.095.72c-.006.23.026.458.095.677.049.18.133.35.248.497.099.133.228.239.377.309.151.077.32.115.489.111.15.016.303.016.454 0l.206-.042v-.858h-.737v-.857h1.585v2.272zM14.997 12.691V7.986h3.069v.857h-2.169v1.071h1.792v.857h-1.792v1.072h2.323v.857zM19.78 12.691V8.843h-1.337v-.857h3.566v.857h-1.295v3.848zM10.103 19.137l1.714-4.697h.857l1.715 4.697h-.918l-.325-.943h-1.8l-.317.943h-.926zm1.517-1.714h1.26l-.634-1.852-.626 1.852zM18.143 15.88a2.04 2.04 0 0 1-.206.831 1.56 1.56 0 0 1-.248.326c-.098.1-.214.179-.343.232a1.911 1.911 0 0 1-.48.137 2.94 2.94 0 0 1-.48.043h-.617v1.714h-.858V14.44h1.415c.21-.004.419.01.625.043.195.03.383.09.558.18.221.106.4.284.505.506.093.225.137.467.129.711zm-.857.06a.763.763 0 0 0-.095-.369.574.574 0 0 0-.291-.24 1.149 1.149 0 0 0-.231-.06 1.663 1.663 0 0 0-.326 0h-.54v1.389H16.65c.095-.013.187-.039.275-.077a.574.574 0 0 0 .274-.257.677.677 0 0 0 .086-.386zM22.034 15.88c0 .144-.017.288-.051.429-.034.14-.085.276-.154.402-.063.121-.144.231-.24.326-.098.1-.214.179-.343.232a2.023 2.023 0 0 1-.48.137 2.957 2.957 0 0 1-.489.043h-.608v1.714h-.858V14.44h1.415c.21-.004.418.01.625.043.194.031.382.092.558.18.219.106.394.285.497.506.097.224.141.467.128.711zm-.857.06a.763.763 0 0 0-.094-.369.574.574 0 0 0-.292-.24 1.097 1.097 0 0 0-.24-.06 1.603 1.603 0 0 0-.325 0h-.532v1.389h.849c.094-.014.186-.04.274-.077a.617.617 0 0 0 .274-.257.78.78 0 0 0 .06-.386h.026z"/>
    </g>
</svg>
