<svg xmlns="http://www.w3.org/2000/svg" xmlns:xlink="http://www.w3.org/1999/xlink" width="64" height="64" viewBox="0 0 64 64">
    <defs>
        <path id="a" d="M52 50.667a2.67 2.67 0 0 1-2.667 2.666H38.667v-2.666h4a1.333 1.333 0 0 0 0-2.667H36v-5.5c0-1.22-.765-2.94-4.41-4.206-1.754-.608-3.916-1.015-6.257-1.192V8A2.67 2.67 0 0 1 28 5.333h21.333A2.67 2.67 0 0 1 52 8v42.667zm-16 6.099c-1.247.967-4.58 1.9-10.667 1.9-5.556 0-9.281-1.103-10.666-2.226v-2.918c2.255.623 5.015.975 8 .975 3.074 0 10.496-.318 13.013-3.264.097-.114.172-.243.225-.38a.97.97 0 0 1 .095.049v5.864zm-24-7.324V45.96c.492.26 1.068.511 1.744.746C16.148 47.54 19.316 48 22.667 48c3.35 0 6.519-.46 8.922-1.294a12.475 12.475 0 0 0 1.744-.746v3.84c-1.344 1.054-4.99 2.03-10.666 2.03-5.257 0-9.189-1.156-10.667-2.388zm10.667-9.775c6.928 0 10.666 2.01 10.666 2.833 0 .822-3.738 2.833-10.666 2.833C15.738 45.333 12 43.323 12 42.5c0-.822 3.738-2.833 10.667-2.833zm26.666-37H28A5.34 5.34 0 0 0 22.667 8v29c-3.35 0-6.52.46-8.923 1.294-3.193 1.109-4.176 2.566-4.371 3.73-.024.1-.04.203-.04.31v7.663c0 .317.114.624.32.866.537.628 1.342 1.19 2.347 1.677V57c0 .318.113.625.32.866 2.184 2.557 8.155 3.467 13.013 3.467 4.716 0 10.8-.543 13.014-3.133.206-.242.32-.549.32-.867V56h10.666a5.34 5.34 0 0 0 5.334-5.333V8a5.34 5.34 0 0 0-5.334-5.333z"/>
    </defs>
    <use fill="#333" fill-rule="evenodd" xlink:href="#a"/>
</svg>
