<svg xmlns="http://www.w3.org/2000/svg" width="64" height="64" viewBox="0 0 64 64">
    <path fill="#272727" fill-rule="evenodd" d="M52.334 51.667a4 4 0 0 1-4 4H36.259a5.276 5.276 0 0 0 .74-2.667h6a1.334 1.334 0 0 0 0-2.666h-6V35.667a5.34 5.34 0 0 0-5.332-5.333h-2.071v-3a1.263 1.263 0 0 0-2.524 0v3h-1.405V11.667a4 4 0 0 1 4-4h18.667a4 4 0 0 1 4 4v40zM34.334 37H11.667v-1.333A2.67 2.67 0 0 1 14.334 33h2.07v1.334a1.263 1.263 0 0 0 2.525 0V33h8.143v1.334a1.263 1.263 0 0 0 2.524 0V33h2.07a2.67 2.67 0 0 1 2.668 2.667V37zm0 16a2.67 2.67 0 0 1-2.667 2.667H14.334A2.67 2.67 0 0 1 11.667 53V39.667h22.667V53zm14-48A6.666 6.666 0 0 1 55 11.667v40a6.666 6.666 0 0 1-6.666 6.667h-34A5.34 5.34 0 0 1 9 53V35.667a5.34 5.34 0 0 1 5.334-5.333h2.07v-3a1.262 1.262 0 1 1 2.525 0v3h4.07V11.667A6.667 6.667 0 0 1 29.668 5h18.667zM15.72 43.725h3.658l-2.2 2.201a1.08 1.08 0 0 0-.319.77c0 .291.113.564.32.77.254.254.623.362.982.297.197-.038.397-.057.597-.057 1.422 0 2.578.922 2.578 2.055 0 1.206-1.205 2.265-2.609 2.265a2.338 2.338 0 0 1-2.07-1.145 1.094 1.094 0 0 0-1.493-.38 1.086 1.086 0 0 0-.38 1.492 4.533 4.533 0 0 0 3.881 2.21h.105c2.571-.007 4.743-2.04 4.743-4.442 0-1.785-1.264-3.365-3.123-3.97l2.385-2.384a1.087 1.087 0 1 0-.77-1.858H15.72a1.09 1.09 0 0 0 0 2.176zm10.232 1.649c.284.067.575.017.82-.138l1.689-1.054v8.932a1.09 1.09 0 0 0 2.176 0V42.219c0-.395-.215-.76-.56-.952h-.001a1.086 1.086 0 0 0-1.104.029l-3.353 2.096a1.077 1.077 0 0 0-.482.677 1.082 1.082 0 0 0 .815 1.305z"/>
</svg>
