<svg xmlns="http://www.w3.org/2000/svg" xmlns:xlink="http://www.w3.org/1999/xlink" width="64" height="64" viewBox="0 0 64 64">
    <defs>
        <path id="a" d="M58.18 18.123c.433.325.627.879.49 1.403a10.042 10.042 0 0 1-6.425 6.966L24.009 36.556a13.131 13.131 0 0 1-4.331.754c-3.682 0-7.147-1.657-9.757-4.786l-4.345-5.347a1.333 1.333 0 0 1 .517-2.069l2-.843a4.171 4.171 0 0 1 3.338.18l6.147 3.295 8.68-3.074-7.74-7.864a1.333 1.333 0 0 1 .511-2.194l3.13-1.09a4.693 4.693 0 0 1 3.65.253l12.443 6.65 10.57-3.745a10.046 10.046 0 0 1 9.359 1.447zm-6.82 5.854a7.386 7.386 0 0 0 4.438-4.234 7.379 7.379 0 0 0-6.092-.551l-8.272 2.931.495.264a1.333 1.333 0 0 1-1.258 2.352L24.57 16.132a2.01 2.01 0 0 0-1.536-.095l-1.139.396 9.756 9.912a1.333 1.333 0 1 1-1.9 1.87l-1.429-1.451-10.41 3.686a1.33 1.33 0 0 1-1.074-.082l-6.639-3.558a1.524 1.524 0 0 0-1.115-.069l-.318.134 3.213 3.954c2.869 3.438 7.04 4.644 11.143 3.212l28.238-10.064zm3.39 24.073a1.333 1.333 0 0 1 0 2.667H9.3a1.333 1.333 0 0 1 0-2.667h45.45z"/>
    </defs>
    <g fill="none" fill-rule="evenodd">
        <path d="M0 64h64V0H0z"/>
        <use fill="#272727" xlink:href="#a"/>
    </g>
</svg>
