<svg xmlns="http://www.w3.org/2000/svg" xmlns:xlink="http://www.w3.org/1999/xlink" width="24" height="24" viewBox="0 0 24 24">
    <defs>
        <path id="a" d="M9.5 16.018A6.525 6.525 0 0 1 2.982 9.5 6.526 6.526 0 0 1 9.5 2.982 6.526 6.526 0 0 1 16.018 9.5 6.525 6.525 0 0 1 9.5 16.018m12.353 5.128l-6.725-6.725A7.449 7.449 0 0 0 16.982 9.5c0-4.126-3.357-7.482-7.482-7.482-4.126 0-7.482 3.356-7.482 7.482 0 4.125 3.356 7.482 7.482 7.482 1.883 0 3.605-.7 4.921-1.854l6.725 6.726a.498.498 0 0 0 .707 0 .5.5 0 0 0 0-.708"/>
    </defs>
    <g fill="none" fill-rule="evenodd">
        <path d="M0 24h24V0H0z"/>
        <use fill="#000" xlink:href="#a"/>
    </g>
</svg>
