<svg xmlns="http://www.w3.org/2000/svg" width="40" height="40" viewBox="0 0 40 40">
    <g fill="none" fill-rule="evenodd">
        <path d="M0 0h40v40H0z"/>
        <path fill="#333" d="M10.563 19.552c0-.244-.06-.471-.18-.68a.987.987 0 0 0-.539-.444 2.807 2.807 0 0 0-.452-.117 3.798 3.798 0 0 0-.613-.04H7.768v2.574h.945c.24 0 .46-.013.659-.039.2-.027.37-.074.513-.144a1.09 1.09 0 0 0 .519-.47c.106-.2.16-.413.16-.64m1.676-.105a3.277 3.277 0 0 1-.385 1.529 2.66 2.66 0 0 1-.466.614 2.1 2.1 0 0 1-.64.43 4.127 4.127 0 0 1-.905.255 5.757 5.757 0 0 1-.918.072H7.768v3.137H6.091v-8.716h2.662c.426 0 .82.03 1.184.086.364.056.714.167 1.052.333.426.208.742.521.945.934.205.414.306.856.306 1.326M13.399 25.483V16.77h1.704v7.133h4.127v1.581zM29.71 25.483v-3.5l-2.848-5.214h1.903l1.824 3.462 1.744-3.462h1.877l-2.795 5.213v3.501z"/>
        <path stroke="#333" stroke-width="1.469" d="M19.869 3.653c9.198 0 16.655 7.319 16.655 16.347 0 9.028-7.457 16.347-16.655 16.347-9.199 0-16.656-7.319-16.656-16.347 0-9.028 7.457-16.347 16.656-16.347z"/>
        <path stroke="#333" stroke-width="1.567" d="M21.3 17.797v6.61l4.678-3.319z"/>
    </g>
</svg>
